<svg xmlns="http://www.w3.org/2000/svg" width="72" height="40" viewBox="0 0 72 40">
    <g fill="#2F2D38" fill-rule="evenodd">
        <path d="M25.585 9.376A11.948 11.948 0 0 0 20 8C13.373 8 8 13.373 8 20s5.373 12 12 12 12-5.373 12-12h8L36.122 8.162A19.91 19.91 0 0 1 40 20c0 11.046-8.954 20-20 20S0 31.046 0 20 8.954 0 20 0c3.41 0 6.62.853 9.43 2.358l-.002.003a4 4 0 1 1-3.843 7.015z"/>
        <path d="M72 20a4 4 0 1 1-8 0c0-6.627-5.373-12-12-12s-12 5.373-12 12 5.373 12 12 12h16a4 4 0 1 1 0 8H52c-11.046 0-20-8.954-20-20S40.954 0 52 0s20 8.954 20 20zm-20 4.8a4.8 4.8 0 1 1 0-9.6 4.8 4.8 0 0 1 0 9.6z"/>
    </g>
</svg>
