<svg xmlns="http://www.w3.org/2000/svg" width="50" height="40" viewBox="0 0 50 40">
    <path fill="#EBEBEB" fill-rule="evenodd" d="M13.147 19.659c0-1.548-.818-2.321-2.456-2.321h-2.89c-2.215 0-4.069-.774-5.562-2.32C.746 13.47 0 11.557 0 9.282c0-2.64.963-4.846 2.89-6.62C4.816.886 7.224 0 10.113 0c3.468 0 6.261 1.274 8.38 3.823 2.119 2.548 3.178 5.87 3.178 9.965 0 6.917-2.84 14.062-8.524 21.434C10.643 38.407 8.524 40 6.79 40c-1.926 0-2.89-.91-2.89-2.73 0-.637.386-1.457 1.157-2.458 5.393-6.735 8.09-11.786 8.09-15.153zm28.329 0c0-1.548-.819-2.321-2.456-2.321h-2.89c-2.215 0-4.07-.774-5.562-2.32-1.493-1.548-2.24-3.46-2.24-5.735 0-2.64.964-4.846 2.89-6.62C33.144.886 35.552 0 38.442 0c3.467 0 6.26 1.274 8.38 3.823C48.94 6.37 50 9.693 50 13.788c0 6.917-2.841 14.062-8.524 21.434C38.972 38.407 36.853 40 35.119 40c-1.926 0-2.89-.91-2.89-2.73 0-.637.386-1.457 1.156-2.458 5.394-6.735 8.09-11.786 8.09-15.153z"/>
</svg>
