<?xml version="1.0" encoding="UTF-8"?>
<svg width="796px" height="190px" viewBox="0 0 796 190" version="1.1" xmlns="http://www.w3.org/2000/svg" xmlns:xlink="http://www.w3.org/1999/xlink">
    <!-- Generator: Sketch 51.2 (57519) - http://www.bohemiancoding.com/sketch -->
    <title>Mask Copy@1,5x</title>
    <desc>Created with Sketch.</desc>
    <defs></defs>
    <g id="web" stroke="none" stroke-width="1" fill="none" fill-rule="evenodd">
        <g id="Start_Page_web" transform="translate(-240.000000, -260.000000)" fill="#FFFFFF">
            <g id="Group" transform="translate(240.000000, 0.000000)">
                <path d="M171.372509,450 L117.074914,450 L117.074914,370 L54.2975945,370 L54.2975945,450 L0,450 L0,260 L54.2975945,260 L54.2975945,320 L117.074914,320 L117.074914,260 L171.372509,260 L171.372509,450 Z M286.259107,449.521189 C260.455083,449.521189 240.418514,445.323494 226.148797,431.361796 C211.879081,417.400099 204.74433,397.524691 204.74433,371.734978 C204.74433,345.110345 211.354802,324.678334 224.575945,310.43833 C237.797088,296.198326 256.671126,289.078431 281.198625,289.078431 C304.540781,289.078431 322.571414,295.270653 335.291065,307.655281 C348.010717,320.03991 354.370447,337.874436 354.370447,361.159393 L354.370447,385.371917 L258.768385,385.371917 C259.133106,394.184948 262.301574,401.096117 268.273883,406.105629 C274.246193,411.115142 282.383912,413.619861 292.687285,413.619861 C302.078856,413.619861 310.718059,412.715379 318.605155,410.906388 C326.49225,409.097398 335.040275,406.012883 344.249485,401.652751 L344.249485,438.718984 C335.860897,443.079116 327.198899,445.076254 318.26323,446.746092 C309.327561,448.41593 298.659627,449.521189 286.259107,449.521189 Z M283.113402,326.092979 C276.821962,326.092979 271.556379,328.110669 267.316495,332.14611 C263.076611,336.181551 260.591985,342.512923 259.862543,351.140417 L305.817182,351.140417 C305.634822,343.53338 303.514911,337.457117 299.457388,332.911448 C295.399865,328.36578 289.951924,326.092979 283.113402,326.092979 Z M438.07354,450 L384.596564,450 L384.596564,260 L438.07354,260 L438.07354,450 Z M528.61512,450 L475.138144,450 L475.138144,260 L528.61512,260 L528.61512,450 Z M713.664605,370.343454 C713.664605,396.133167 706.84898,416.240493 693.217526,430.666034 C679.586072,445.091575 660.506881,449.521189 635.979381,449.521189 C612.454865,449.521189 593.74039,444.929233 579.835395,430.179001 C565.9304,415.428769 558.978007,395.483786 558.978007,370.343454 C558.978007,344.646509 565.793632,324.678334 579.425086,310.43833 C593.05654,296.198326 612.18132,286.673082 636.8,286.673082 C652.027109,286.673082 665.476001,292.371673 677.147079,298.958254 C688.818157,305.544836 697.822076,314.983915 704.159107,327.275775 C710.496137,339.567635 713.664605,353.923384 713.664605,370.343454 Z M613.275601,370.343454 C613.275601,383.887692 615.05359,394.208061 618.609622,401.30487 C622.165654,408.40168 628.137873,411.950032 636.52646,411.950032 C644.823867,411.950032 650.682113,408.40168 654.101375,401.30487 C657.520636,394.208061 659.230241,383.887692 659.230241,370.343454 C659.230241,356.891984 657.497841,346.733958 654.03299,339.86907 C650.568138,333.004182 644.641508,329.57179 636.252921,329.57179 C628.046694,329.57179 622.165654,332.980991 618.609622,339.799494 C615.05359,346.617997 613.275601,356.799215 613.275601,370.343454 Z M789.024742,380 L743.890722,380 L736.915464,260 L796,260 L789.024742,380 Z M737.462543,423.421885 C737.462543,414.979928 739.924374,408.416637 744.84811,403.731815 C749.771846,399.046993 756.929392,396.704617 766.320962,396.704617 C775.621352,396.704617 782.664925,399.046993 787.45189,403.731815 C792.238856,408.416637 794.632302,414.979928 794.632302,423.421885 C794.632302,431.771073 792.147677,438.28798 787.178351,442.972802 C782.209024,447.657624 775.256631,450 766.320962,450 C757.294113,450 750.227746,447.657624 745.121649,442.972802 C740.015553,438.28798 737.462543,431.771073 737.462543,423.421885 Z" id="Mask-Copy"></path>
            </g>
        </g>
    </g>
</svg>